<svg width="165" height="135" viewBox="0 0 165 135" fill="none" xmlns="http://www.w3.org/2000/svg">
<path d="M130.496 77.3115L163.6 49.3717C164.117 48.9235 164.482 48.3261 164.646 47.6617C164.809 46.9974 164.763 46.2987 164.513 45.6617C164.263 45.0248 163.822 44.4809 163.25 44.1049C162.679 43.7288 162.005 43.5391 161.321 43.5619L127.604 45.1564C127.604 45.1564 132.173 63.0437 130.496 77.3115Z" fill="#FF6AAB"/>
<path d="M120.758 103.453C143.153 68.2744 123.395 11.9201 96.9172 3.90344C70.3402 -4.14637 80.0728 45.0297 90.9254 42.1607C99.0249 40.0145 73.4354 2.43583 53.2143 7.90904C32.9933 13.3822 58.3455 48.0588 61.3469 44.4284C66.1636 38.6131 32.8884 22.6072 27.2386 36.4503C21.5889 50.2933 44.2928 68.3681 44.2928 68.3681L120.758 103.453Z" fill="#967AFE"/>
<path d="M119.621 102.73C134.209 78.6191 129.877 43.435 114.175 20.836C110.192 15.1917 105.06 9.9833 98.7265 7.21359C86.2186 1.83418 81.8709 9.7461 82.4171 21.3215C82.7316 26.403 83.9068 31.6665 86.3565 36.119C87.0462 37.3218 88.0118 38.6791 89.0711 39.3687C89.2261 39.4893 89.4033 39.5781 89.5927 39.6302C89.782 39.6822 89.9797 39.6966 90.1746 39.6722H90.2297C90.1646 39.6927 90.1045 39.7265 90.0532 39.7715C89.9605 39.8381 89.8864 39.9274 89.838 40.0308C89.9539 38.8225 89.4352 37.4984 88.9662 36.2845C88.2937 34.7113 87.5025 33.1915 86.5993 31.7383C80.5799 21.9836 66.5603 7.50604 54.1021 10.2758C40.9984 13.3103 51.818 32.3451 57.0264 38.6404C58.1298 39.9535 59.5588 41.6253 60.9326 42.3756C60.6769 42.3344 60.4147 42.367 60.1768 42.4695C59.9338 42.5648 59.7192 42.7205 59.5533 42.9219C59.5092 42.966 59.5533 42.9219 59.5533 42.9605C59.5276 43.0145 59.5108 43.0722 59.5037 43.1315C59.4732 42.9702 59.4113 42.8165 59.3215 42.6791C56.0111 38.0446 47.2386 34.6734 41.7433 33.6251C35.1666 32.4168 28.4465 33.2334 28.5016 41.3826C28.7279 48.1248 33.3073 54.398 37.6108 59.5567C39.9626 62.3165 42.4932 64.919 45.1861 67.3472C45.4271 67.5839 45.5707 67.9024 45.5886 68.2398C45.6065 68.5771 45.4975 68.909 45.2829 69.1699C45.0683 69.4309 44.7638 69.6021 44.4293 69.6497C44.0948 69.6973 43.7546 69.6179 43.4757 69.4272C37.4066 64.7595 32.0328 59.4188 28.0272 52.8421C24.3029 46.8723 22.1236 37.9453 27.5086 32.2238C31.4976 28.323 37.5446 28.3616 42.5819 29.2223C49.3572 30.5685 55.9118 33.1783 61.1809 37.7246C62.4719 38.9439 63.8458 40.4832 64.1492 42.5191C64.4141 44.0915 63.5975 46.1716 61.9754 46.8006C60.265 47.4185 58.9464 46.635 57.8815 45.9564C53.098 42.2874 49.9145 37.1286 47.1061 31.9589C43.5916 25.0788 40.1322 14.5186 47.0013 8.37222C53.8318 2.70591 63.8182 4.68112 70.7259 8.78603C77.4957 12.7089 83.0572 18.1656 87.7745 24.2843C90.7925 28.3506 98.6272 39.446 93.2367 43.8764C91.256 45.3606 88.3318 45.0295 86.3952 43.7274C80.1937 39.4349 77.8488 28.6871 77.4295 21.5918C77.104 14.5186 78.373 5.82878 85.2366 2.0163C93.6671 -2.29275 104.415 3.5556 110.561 9.35433C128.393 26.5574 135.555 56.6215 131.207 80.5613C130.06 87.0981 127.904 93.4171 124.818 99.2926C124.106 100.799 122.799 102.752 121.943 104.181C121.853 104.339 121.732 104.478 121.586 104.588C121.441 104.698 121.274 104.777 121.097 104.821C120.92 104.865 120.736 104.872 120.556 104.843C120.376 104.813 120.204 104.747 120.05 104.649C119.896 104.551 119.764 104.423 119.662 104.272C119.559 104.122 119.488 103.952 119.453 103.773C119.418 103.594 119.419 103.409 119.458 103.231C119.496 103.053 119.57 102.884 119.676 102.735L119.621 102.73Z" fill="black"/>
<path d="M118.45 96.4157C123.764 75.12 109.281 53.1681 86.102 47.3846C62.923 41.6011 39.8253 54.1762 34.5117 75.4719C29.1981 96.7677 43.6809 118.72 66.8599 124.503C90.0389 130.287 113.137 117.711 118.45 96.4157Z" fill="url(#paint0_linear_1_6237)"/>
<path d="M130.491 115.651C138.114 110.212 141.086 101.309 137.13 95.7649C133.174 90.2212 123.789 90.1363 116.166 95.5752C108.544 101.014 105.572 109.917 109.527 115.461C113.483 121.005 122.869 121.09 130.491 115.651Z" fill="#967AFE"/>
<path d="M126.575 110.173C130.035 107.704 131.787 104.226 130.488 102.406C129.189 100.585 125.331 101.111 121.871 103.58C118.41 106.049 116.659 109.526 117.958 111.347C119.257 113.167 123.115 112.642 126.575 110.173Z" fill="#967AFE"/>
<path d="M117.292 111.817C115.852 110.25 116.475 107.778 117.408 106.167C119.615 102.432 124.134 99.491 128.592 100.17C129.64 100.252 132.305 101.968 130.843 103.033C130.678 103.12 130.491 103.151 130.307 103.123C130.123 103.095 129.953 103.01 129.822 102.879C129.033 102.327 127.72 102.498 126.451 102.912C123.692 103.811 118.136 107.646 118.638 110.857C118.735 111.035 118.763 111.243 118.717 111.441C118.671 111.639 118.554 111.813 118.389 111.931C118.224 112.049 118.021 112.103 117.819 112.082C117.617 112.061 117.43 111.966 117.292 111.817Z" fill="black"/>
<path d="M121.408 91.2873C133.546 86.1948 145.072 94.8902 139.615 107.972C135.373 117.936 121.303 125.561 111.289 119.481C109.898 118.549 108.729 117.323 107.863 115.889C107.04 114.468 106.557 112.877 106.451 111.238C106.442 110.891 106.562 110.553 106.789 110.29C107.016 110.027 107.332 109.858 107.677 109.816C108.022 109.774 108.37 109.862 108.653 110.063C108.936 110.263 109.135 110.562 109.209 110.902C109.422 112.078 109.887 113.194 110.572 114.173C112.145 116.38 114.738 117.484 117.397 117.666C123.428 117.991 129.331 114.764 133.11 110.184C138.01 104.446 138.628 95.3481 129.877 93.5219C127.342 93.0736 124.737 93.2133 122.263 93.9302C121.919 94.0266 121.55 93.987 121.234 93.8197C120.918 93.6523 120.678 93.3698 120.564 93.0306C120.45 92.6915 120.471 92.3215 120.622 91.9971C120.772 91.6727 121.042 91.4186 121.375 91.2873H121.408Z" fill="black"/>
<path d="M81.8823 68.8045C84.5362 59.8222 98.8261 61.025 99.2289 70.6583C99.2387 70.728 99.2226 70.799 99.1835 70.8576C99.1444 70.9162 99.0852 70.9584 99.017 70.9761C98.9488 70.9938 98.8765 70.9858 98.8138 70.9537C98.7511 70.9215 98.7025 70.8674 98.6772 70.8017C94.7267 64.8485 87.521 64.3575 82.3513 69.0582C82.3098 69.1062 82.2534 69.1389 82.191 69.1508C82.1287 69.1627 82.0642 69.1531 82.008 69.1237C81.9518 69.0943 81.9071 69.0468 81.8813 68.9889C81.8555 68.9309 81.85 68.8659 81.8657 68.8045H81.8823Z" fill="black"/>
<path d="M56.6517 61.4109C61.5511 53.4328 75.0355 58.3157 72.9168 67.7227C72.8997 67.7827 72.8635 67.8354 72.8137 67.873C72.764 67.9105 72.7033 67.9309 72.6409 67.9309C72.5786 67.9309 72.5179 67.9105 72.4682 67.873C72.4184 67.8354 72.3822 67.7827 72.3651 67.7227C70.0809 60.9364 63.2945 58.6026 57.0544 61.7971C57.0006 61.8302 56.9375 61.8446 56.8747 61.8381C56.8118 61.8316 56.7529 61.8046 56.707 61.7612C56.6611 61.7178 56.6308 61.6606 56.6208 61.5982C56.6108 61.5359 56.6217 61.4719 56.6517 61.4164V61.4109Z" fill="black"/>
<path d="M75.609 73.257C72.1883 71.4639 67.2117 68.8045 63.3661 69.8583C62.7029 70.0801 62.1488 70.5455 61.8157 71.1604C61.6667 71.7121 61.8819 72.0652 62.2184 72.6225C63.3826 74.4046 65.9316 76.1701 67.9179 77.4722C68.1346 77.6147 68.3197 77.8002 68.4617 78.0173C68.6038 78.2343 68.6997 78.4781 68.7435 78.7337C68.7873 78.9894 68.7781 79.2513 68.7165 79.5032C68.6548 79.7551 68.5421 79.9917 68.3852 80.1983C68.2283 80.4048 68.0306 80.5769 67.8045 80.7038C67.5783 80.8307 67.3284 80.9098 67.0704 80.9362C66.8124 80.9625 66.5517 80.9356 66.3046 80.857C66.0574 80.7783 65.8291 80.6498 65.6337 80.4792C64.0337 80.5895 62.075 81.0309 61.1481 81.7206C60.8277 81.946 60.5837 82.2638 60.4487 82.6315C60.3136 82.9992 60.2939 83.3994 60.3922 83.7786C60.5964 84.722 61.3853 85.0641 62.5053 85.4338C65.264 86.14 68.3096 85.9193 71.2007 85.6268C71.326 85.6036 71.4556 85.6284 71.5635 85.6962C71.6714 85.7641 71.7499 85.8701 71.7833 85.9931C71.8166 86.1161 71.8025 86.2472 71.7436 86.3603C71.6847 86.4734 71.5854 86.5602 71.4655 86.6034C67.1123 88.2586 58.6598 90.4656 56.8225 84.3248C55.6418 79.7178 59.7908 76.9315 63.7854 76.4957C64.3823 76.4036 64.9856 76.3593 65.5895 76.3633L64.5413 80.2254C61.6667 78.3661 58.5439 75.9825 57.9205 72.2969C57.5232 69.5382 59.9784 67.1327 62.4888 66.6748C65.3412 66.123 67.8627 67.0941 70.2407 68.2968C72.3948 69.4388 74.3952 70.8497 76.1939 72.4956C76.2842 72.5814 76.3398 72.6975 76.3501 72.8216C76.3604 72.9458 76.3246 73.0695 76.2496 73.169C76.1746 73.2685 76.0657 73.337 75.9435 73.3613C75.8213 73.3857 75.6944 73.3643 75.587 73.3011L75.609 73.257Z" fill="black"/>
<path d="M102.881 83.8885C111.008 83.8885 117.596 80.9416 117.596 77.3063C117.596 73.6711 111.008 70.7241 102.881 70.7241C94.7545 70.7241 88.1665 73.6711 88.1665 77.3063C88.1665 80.9416 94.7545 83.8885 102.881 83.8885Z" fill="url(#paint1_radial_1_6237)"/>
<path d="M66.7749 73.4266C68.0842 70.0353 62.9996 64.9134 55.4182 61.9865C47.8369 59.0596 40.6296 59.436 39.3204 62.8273C38.0111 66.2186 43.0956 71.3405 50.6769 74.2674C58.2583 77.1943 65.4656 76.8179 66.7749 73.4266Z" fill="url(#paint2_radial_1_6237)"/>
<path d="M61.2916 77.6211C61.2916 77.6211 27.2109 80.617 17.8921 76.6997C8.5733 72.7824 4.15941 59.6401 21.8149 58.4925C39.4704 57.3448 35.1117 68.4678 27.4813 70.8734C27.4813 70.8734 35.9228 76.9425 59.6419 75.2376L61.2916 77.6211Z" fill="#FBEB6F"/>
<path d="M6.29467 47.9428C6.35102 47.9414 6.40676 47.955 6.45617 47.9822C6.50558 48.0093 6.54692 48.0489 6.57606 48.0972C6.86827 48.6067 7.05584 49.1694 7.12779 49.7524C7.70906 49.8317 8.27042 50.0188 8.783 50.3041C8.82974 50.3334 8.86829 50.3741 8.895 50.4223C8.92171 50.4706 8.93575 50.5248 8.93575 50.58C8.93575 50.6352 8.92171 50.6894 8.895 50.7377C8.86829 50.7859 8.82974 50.8266 8.783 50.8559C8.27396 51.1492 7.71101 51.3368 7.12779 51.4076C7.04691 51.9885 6.85988 52.5496 6.57606 53.0628C6.54586 53.1083 6.50485 53.1457 6.45671 53.1715C6.40858 53.1973 6.35482 53.2109 6.30019 53.2109C6.24556 53.2109 6.1918 53.1973 6.14367 53.1715C6.09553 53.1457 6.05452 53.1083 6.02432 53.0628C5.73332 52.5527 5.54583 51.9903 5.47259 51.4076L5.05326 51.3359C4.61316 51.2457 4.19153 51.0815 3.80634 50.8503C3.7596 50.8211 3.72105 50.7804 3.69433 50.7321C3.66762 50.6839 3.65365 50.6296 3.65365 50.5745C3.65365 50.5193 3.66762 50.4651 3.69433 50.4169C3.72105 50.3686 3.7596 50.3279 3.80634 50.2986C4.31587 50.0064 4.87859 49.8188 5.46154 49.7469C5.46154 49.6034 5.50568 49.4655 5.53327 49.3276C5.62023 48.8892 5.78264 48.4691 6.01328 48.0862C6.04336 48.0396 6.08522 48.0018 6.13464 47.9766C6.18406 47.9514 6.23928 47.9397 6.29467 47.9428ZM6.29467 45.1841C5.76823 45.1852 5.25082 45.3205 4.79127 45.5773C4.33172 45.8341 3.94523 46.2039 3.6684 46.6516C3.49788 46.9307 3.34853 47.2221 3.22153 47.5234C2.93546 47.6421 2.6588 47.7823 2.39393 47.9428C1.93884 48.2148 1.56153 48.5995 1.29848 49.0598C1.03542 49.5202 0.895478 50.0405 0.892151 50.5707C0.888823 51.1009 1.02223 51.623 1.27948 52.0866C1.53674 52.5502 1.90916 52.9396 2.36079 53.2173C2.64052 53.3884 2.93393 53.5361 3.23803 53.6587C3.35373 53.9352 3.48645 54.2042 3.63533 54.4642C3.90648 54.9315 4.29556 55.3194 4.76372 55.589C5.23189 55.8586 5.7627 56.0006 6.30295 56.0006C6.8432 56.0006 7.37401 55.8586 7.84218 55.589C8.31034 55.3194 8.69942 54.9315 8.97057 54.4642C9.11576 54.2077 9.24479 53.9424 9.35682 53.6698C9.63793 53.5544 9.91076 53.4198 10.1734 53.2669C10.6407 52.9958 11.0285 52.6067 11.2981 52.1386C11.5678 51.6704 11.7096 51.1396 11.7096 50.5993C11.7096 50.0591 11.5678 49.5283 11.2981 49.0602C11.0285 48.592 10.6407 48.2029 10.1734 47.9317C9.91744 47.7854 9.65198 47.6564 9.37885 47.5455C9.25838 47.2521 9.11644 46.9682 8.95407 46.6958C8.67824 46.2401 8.28961 45.8631 7.82574 45.6013C7.36188 45.3394 6.8384 45.2013 6.30571 45.2006L6.29467 45.1841Z" fill="black"/>
<path d="M138.859 21.0629C138.915 21.062 138.97 21.0758 139.018 21.1029C139.067 21.1301 139.107 21.1696 139.135 21.2174C139.428 21.7269 139.615 22.2896 139.687 22.8726C140.268 22.9518 140.83 23.139 141.342 23.4243C141.389 23.4536 141.428 23.4943 141.454 23.5425C141.481 23.5908 141.495 23.645 141.495 23.7002C141.495 23.7553 141.481 23.8096 141.454 23.8578C141.428 23.9061 141.389 23.9468 141.342 23.976C140.833 24.2694 140.27 24.457 139.687 24.5278C139.606 25.1087 139.419 25.6697 139.135 26.183C139.106 26.2301 139.066 26.269 139.017 26.296C138.969 26.323 138.915 26.3373 138.859 26.3375C138.804 26.3384 138.749 26.3246 138.701 26.2974C138.652 26.2703 138.612 26.2308 138.584 26.183C138.29 25.6739 138.103 25.111 138.032 24.5278L137.613 24.4561C137.173 24.3649 136.751 24.2008 136.366 23.9705C136.319 23.9412 136.28 23.9006 136.254 23.8523C136.227 23.8041 136.213 23.7498 136.213 23.6947C136.213 23.6395 136.227 23.5852 136.254 23.537C136.28 23.4887 136.319 23.4481 136.366 23.4188C136.875 23.1273 137.438 22.9397 138.021 22.8671C138.021 22.7291 138.065 22.5857 138.093 22.4477C138.184 22.0097 138.348 21.5901 138.578 21.2063C138.607 21.1589 138.649 21.1204 138.699 21.0951C138.748 21.0698 138.804 21.0587 138.859 21.0629ZM138.859 18.3042C138.332 18.3044 137.814 18.4393 137.353 18.6962C136.892 18.953 136.505 19.3233 136.228 19.7718C136.181 20.0949 136.032 20.3946 135.803 20.6269C135.573 20.8592 135.276 21.012 134.953 21.0629C134.501 21.3388 134.128 21.7263 133.868 22.1881C133.609 22.6499 133.473 23.1706 133.473 23.7002C133.473 24.2298 133.609 24.7504 133.868 25.2123C134.128 25.6741 134.501 26.0616 134.953 26.3375C135.23 26.5096 135.522 26.6572 135.825 26.7788C135.941 27.0553 136.073 27.3243 136.222 27.5844C136.493 28.0517 136.882 28.4396 137.351 28.7092C137.819 28.9788 138.35 29.1207 138.89 29.1207C139.43 29.1207 139.961 28.9788 140.429 28.7092C140.897 28.4396 141.286 28.0517 141.557 27.5844C141.705 27.3291 141.834 27.0635 141.944 26.7899C142.225 26.6745 142.498 26.54 142.76 26.3871C143.228 26.116 143.615 25.7268 143.885 25.2587C144.155 24.7905 144.297 24.2598 144.297 23.7195C144.297 23.1793 144.155 22.6485 143.885 22.1803C143.615 21.7121 143.228 21.323 142.76 21.0519C142.504 20.9056 142.239 20.7765 141.966 20.6656C141.845 20.3723 141.703 20.0883 141.541 19.8159C141.266 19.3607 140.878 18.9839 140.415 18.722C139.953 18.4601 139.43 18.3219 138.898 18.3208L138.859 18.3042Z" fill="black"/>
<path d="M150.529 81.412C150.585 81.4105 150.64 81.4241 150.688 81.4513C150.737 81.4785 150.777 81.5183 150.805 81.5665C151.094 82.0774 151.281 82.6395 151.357 83.2217C151.937 83.3027 152.498 83.4897 153.012 83.7734C153.058 83.8027 153.097 83.8434 153.124 83.8916C153.15 83.9399 153.164 83.9941 153.164 84.0493C153.164 84.1045 153.15 84.1587 153.124 84.207C153.097 84.2552 153.058 84.2959 153.012 84.3252C152.502 84.6174 151.939 84.805 151.357 84.8769C151.276 85.4578 151.089 86.0188 150.805 86.5321C150.776 86.5789 150.735 86.6174 150.687 86.6441C150.638 86.6708 150.584 86.6849 150.529 86.6849C150.474 86.6849 150.42 86.6708 150.371 86.6441C150.323 86.6174 150.282 86.5789 150.253 86.5321C149.96 86.023 149.772 85.4601 149.701 84.8769L149.282 84.8052C148.842 84.713 148.421 84.549 148.035 84.3196C147.988 84.2904 147.95 84.2497 147.923 84.2014C147.896 84.1532 147.882 84.0989 147.882 84.0438C147.882 83.9886 147.896 83.9344 147.923 83.8861C147.95 83.8379 147.988 83.7972 148.035 83.7679C148.545 83.4757 149.107 83.2881 149.69 83.2162C149.69 83.0782 149.729 82.9348 149.756 82.7969C149.848 82.3588 150.012 81.9392 150.242 81.5555C150.272 81.5076 150.315 81.4689 150.365 81.4436C150.416 81.4183 150.473 81.4074 150.529 81.412ZM150.529 78.6533C150.002 78.6539 149.485 78.7891 149.025 79.0459C148.565 79.3028 148.179 79.6728 147.903 80.121C147.73 80.3988 147.58 80.6903 147.456 80.9927C147.168 81.1113 146.889 81.2515 146.623 81.412C146.171 81.6879 145.797 82.0754 145.538 82.5372C145.279 82.999 145.143 83.5197 145.143 84.0493C145.143 84.5789 145.279 85.0996 145.538 85.5614C145.797 86.0232 146.171 86.4107 146.623 86.6866C146.9 86.8576 147.192 87.0052 147.494 87.128C147.61 87.4044 147.743 87.6735 147.892 87.9335C148.163 88.4008 148.552 88.7887 149.02 89.0583C149.488 89.3279 150.019 89.4698 150.559 89.4698C151.099 89.4698 151.63 89.3279 152.098 89.0583C152.567 88.7887 152.956 88.4008 153.227 87.9335C153.374 87.6771 153.505 87.4118 153.619 87.139C153.899 87.0226 154.172 86.8881 154.435 86.7362C154.901 86.464 155.288 86.0745 155.556 85.6064C155.825 85.1384 155.966 84.6082 155.966 84.0686C155.966 83.529 155.825 82.9988 155.556 82.5308C155.288 82.0627 154.901 81.6732 154.435 81.4009C154.179 81.2547 153.914 81.1257 153.641 81.0148C153.52 80.7214 153.378 80.4374 153.216 80.1651C152.942 79.709 152.554 79.3317 152.091 79.0697C151.628 78.8077 151.105 78.67 150.573 78.6699L150.529 78.6533Z" fill="black"/>
<defs>
<linearGradient id="paint0_linear_1_6237" x1="118.407" y1="37.7431" x2="39.4082" y2="128.572" gradientUnits="userSpaceOnUse">
<stop offset="0.538242" stop-color="#967AFE"/>
<stop offset="1" stop-color="#FFAF54"/>
</linearGradient>
<radialGradient id="paint1_radial_1_6237" cx="0" cy="0" r="1" gradientUnits="userSpaceOnUse" gradientTransform="translate(102.887 79.69) scale(17.1645 7.38073)">
<stop stop-color="#EA3D6E" stop-opacity="0.77"/>
<stop offset="0.24" stop-color="#DB588D" stop-opacity="0.6"/>
<stop offset="0.77" stop-color="#B59ADC" stop-opacity="0.18"/>
<stop offset="1" stop-color="#A4B8FF" stop-opacity="0"/>
</radialGradient>
<radialGradient id="paint2_radial_1_6237" cx="0" cy="0" r="1" gradientUnits="userSpaceOnUse" gradientTransform="translate(51.9248 71.0353) rotate(21.11) scale(17.1645 7.38072)">
<stop stop-color="#EA3D6E" stop-opacity="0.77"/>
<stop offset="0.24" stop-color="#DB588D" stop-opacity="0.6"/>
<stop offset="0.77" stop-color="#B59ADC" stop-opacity="0.18"/>
<stop offset="1" stop-color="#A4B8FF" stop-opacity="0"/>
</radialGradient>
</defs>
</svg>
