<svg width="122" height="122" viewBox="0 0 122 122" fill="none" xmlns="http://www.w3.org/2000/svg">
<path d="M99.7261 90.7867C114.495 54.6136 86.8795 5.9866 61.1346 3.01523C35.2966 0.0386984 52.4789 43.7358 62.0027 39.2762C69.1082 35.9483 39.2653 5.57836 21.5302 14.0015C3.795 22.4247 32.9609 50.1747 35.1209 46.3041C38.5884 40.1392 5.24709 30.9409 2.35841 44.6453C-0.530276 58.3498 23.4008 71.2119 23.4008 71.2119L99.7261 90.7867Z" fill="#967AFE"/>
<path d="M98.5587 90.3121C107.979 65.6524 98.1142 33.9492 79.8727 15.7438C75.2373 11.2066 69.6615 7.26377 63.3519 5.76517C50.9497 2.89715 48.2418 10.9328 50.6809 21.4901C51.8178 26.141 53.7815 30.7918 56.7787 34.4659C57.7141 35.5356 59.4555 37.4735 60.9128 37.1066C60.9128 37.1066 61.0058 37.1066 60.9645 37.1066C60.9075 37.1386 60.8568 37.1807 60.8146 37.2306C60.74 37.3069 60.6866 37.4013 60.6595 37.5045C60.5665 36.3676 59.8689 35.2359 59.2281 34.1972C58.3475 32.8602 57.3663 31.5922 56.293 30.4042C49.1152 22.4203 33.7778 11.4134 22.7553 16.0435C11.1902 21.0302 24.3417 36.7914 30.1863 41.7006C31.4058 42.7341 33.0181 44.026 34.4134 44.4911C34.1705 44.4956 33.9339 44.5691 33.7312 44.7029C33.5094 44.8383 33.3303 45.0335 33.2145 45.2662C33.1835 45.3179 33.2145 45.4729 33.2145 45.4316C33.1602 45.2875 33.0777 45.1557 32.9716 45.044C29.1321 41.3182 20.4609 39.6646 15.2416 39.618C8.97851 39.618 2.92207 41.4784 4.32249 48.9765C5.65573 55.1777 10.9267 60.1747 15.7532 64.2054C18.3773 66.3575 21.1392 68.3357 24.0214 70.1275C24.2866 70.3028 24.4758 70.5719 24.5511 70.8808C24.6264 71.1898 24.5822 71.5157 24.4273 71.7935C24.2724 72.0712 24.0184 72.2801 23.716 72.3785C23.4136 72.4768 23.0852 72.4572 22.7966 72.3237C16.4405 69.0371 10.5804 65.0167 5.74357 59.6218C1.34079 54.7539 -2.1525 46.9043 1.85755 40.7084C4.87543 36.4503 10.4564 35.4633 15.2416 35.4271C21.6443 35.4271 31.7779 37.3908 36.2892 42.2432C37.7981 43.7934 38.1754 47.0129 36.0463 48.3926C33.7054 49.7 31.2715 47.8758 29.5352 46.77C21.5461 40.9978 8.17751 25.4227 15.8359 15.4751C21.1843 9.10859 30.7185 9.27396 37.7671 11.8991C44.6555 14.3795 50.6861 18.4671 56.0656 23.3298C59.5227 26.575 68.5918 35.4943 64.3699 40.481C62.7886 42.176 60.0446 42.3569 58.0396 41.4784C51.6214 38.5794 47.6424 29.0296 46.0818 22.5805C44.5212 16.1313 44.3196 7.8942 50.0092 3.23304C57.0577 -2.14643 67.9355 1.45023 74.5759 5.76517C93.882 18.648 105.494 45.1577 105.488 67.9468C105.49 71.9351 105.114 75.9146 104.367 79.8322C104.248 80.8658 103.69 82.7106 103.489 83.7234C103.204 84.9378 102.677 86.3434 102.331 87.5371C101.995 88.5344 101.251 90.2863 100.894 91.2578C100.832 91.4111 100.74 91.5507 100.624 91.6685C100.507 91.7863 100.369 91.88 100.216 91.9443C100.064 92.0086 99.8998 92.0422 99.7343 92.0433C99.5687 92.0443 99.4045 92.0126 99.2511 91.9502C99.0977 91.8878 98.9582 91.7957 98.8404 91.6794C98.7226 91.563 98.6289 91.4246 98.5646 91.272C98.5003 91.1194 98.4666 90.9556 98.4656 90.7901C98.4646 90.6245 98.4962 90.4603 98.5587 90.3069V90.3121Z" fill="black"/>
<path d="M96.4021 84.6386C97.743 64.1251 80.73 46.3125 58.4024 44.853C36.0749 43.3935 16.8878 58.8398 15.5469 79.3532C14.2059 99.8667 31.2189 117.679 53.5465 119.139C75.8741 120.598 95.0612 105.152 96.4021 84.6386Z" fill="url(#paint0_linear_1_6225)"/>
<path d="M121.626 84.0086L96.827 70.3352L17.0911 53.5767V76.9445L40.4951 82.0914L52.334 66.9142L54.768 85.8379L84.6315 92.0442L96.1449 78.5103L119.446 86.1686L121.626 84.0086Z" fill="black"/>
<path d="M110.739 100.374C116.856 94.0882 118.109 85.3866 113.537 80.938C108.966 76.4895 100.302 77.9785 94.1851 84.2639C88.0685 90.5492 86.8159 99.2508 91.3873 103.699C95.9587 108.148 104.623 106.659 110.739 100.374Z" fill="#967AFE"/>
<path d="M106.217 95.9739C108.993 93.1206 110.027 89.6233 108.526 88.1623C107.025 86.7013 103.557 87.83 100.78 90.6833C98.0036 93.5366 96.9697 97.034 98.471 98.4949C99.9723 99.9559 103.44 98.8272 106.217 95.9739Z" fill="#967AFE"/>
<path d="M97.9336 99.0776C96.342 97.8684 96.5022 95.4862 97.0965 93.8429C98.4969 90.0499 102.197 86.5617 106.398 86.4532C107.375 86.355 110.119 87.4867 108.951 88.7166C108.812 88.8222 108.644 88.882 108.47 88.8875C108.296 88.8931 108.124 88.8442 107.979 88.7476C107.163 88.3601 105.98 88.7476 104.879 89.3419C102.471 90.6286 98.0112 95.0882 99.0085 97.9666C99.1285 98.115 99.19 98.3022 99.1813 98.4928C99.1726 98.6834 99.0943 98.8643 98.9613 99.0011C98.8283 99.138 98.6497 99.2213 98.4594 99.2354C98.2691 99.2495 98.0802 99.1934 97.9285 99.0776H97.9336Z" fill="black"/>
<path d="M98.2957 79.4653C108.631 72.7475 120.713 78.8297 117.886 91.8004C115.638 101.691 103.933 111.065 93.7017 107.133C92.2636 106.509 90.9809 105.575 89.9448 104.399C88.9539 103.225 88.2466 101.839 87.8778 100.348C87.8014 100.025 87.8501 99.6861 88.0141 99.3984C88.1781 99.1107 88.4452 98.8959 88.7614 98.7975C89.0776 98.6991 89.4194 98.7244 89.7177 98.8682C90.016 99.012 90.2487 99.2637 90.3686 99.5724C90.7617 100.62 91.3769 101.57 92.1721 102.358C93.9911 104.125 96.5594 104.699 99.0501 104.425C104.657 103.717 109.561 99.774 112.279 94.9061C115.84 88.798 114.889 80.3128 106.517 80.0906C104.105 80.0992 101.727 80.6614 99.5669 81.7339C99.2665 81.8745 98.9239 81.8957 98.6085 81.7931C98.2931 81.6906 98.0284 81.472 97.8681 81.1816C97.7078 80.8913 97.6639 80.5508 97.7452 80.2293C97.8265 79.9077 98.027 79.6291 98.306 79.4498L98.2957 79.4653Z" fill="black"/>
<path d="M75.5608 84.0753C72.8633 89.9716 66.4917 93.5837 60.1252 93.7697C53.9241 93.9816 47.7695 91.3203 43.0721 87.4291C42.9222 87.3102 42.8212 87.1404 42.7882 86.9519C42.7553 86.7634 42.7928 86.5693 42.8936 86.4067C42.9944 86.244 43.1515 86.1241 43.3349 86.0696C43.5183 86.0152 43.7154 86.03 43.8886 86.1114C46.4732 87.2888 49.1483 88.2565 51.888 89.0052C60.2699 91.3823 67.9076 89.0052 74.243 83.2382C74.3696 83.1052 74.5386 83.0204 74.7209 82.9984C74.9031 82.9764 75.0874 83.0185 75.2421 83.1175C75.3967 83.2165 75.512 83.3662 75.5683 83.541C75.6246 83.7158 75.6182 83.9047 75.5504 84.0753H75.5608Z" fill="black"/>
<path d="M21.9703 69.9216L20.9006 58.7441L31.6182 60.5786L22.5853 61.0385L21.9703 69.9216Z" fill="white"/>
<path d="M58.644 78.4016L57.5691 67.2241L68.2918 69.0586L59.2537 69.5185L58.644 78.4016Z" fill="white"/>
<defs>
<linearGradient id="paint0_linear_1_6225" x1="86.5658" y1="30.5626" x2="28.9267" y2="127.467" gradientUnits="userSpaceOnUse">
<stop offset="0.499814" stop-color="#967AFE"/>
<stop offset="1" stop-color="#9AD0F0"/>
</linearGradient>
</defs>
</svg>
