<svg width="118" height="133" viewBox="0 0 118 133" fill="none" xmlns="http://www.w3.org/2000/svg">
<path d="M94.9588 102.191C118.005 68.5011 100.504 12.7371 74.8607 4.03801C49.1251 -4.68811 57.0413 43.7268 67.7599 41.2644C75.7517 39.4285 51.9384 1.84569 31.9807 6.54354C12.0229 11.2414 35.701 45.9623 38.7573 42.528C43.655 36.9986 11.6233 20.2645 5.65109 33.6237C-0.321117 46.9828 21.3106 65.3962 21.3106 65.3962L94.9588 102.191Z" fill="#967AFE"/>
<path d="M93.8735 101.447C108.923 78.33 105.823 43.7766 91.1735 21.1621C87.4585 15.5139 82.6095 10.2544 76.5185 7.33852C64.4606 1.6741 59.9463 9.27167 60.1137 20.6167C60.2541 25.59 61.2315 30.7792 63.4832 35.1963C64.1204 36.395 64.9951 37.7558 66.0319 38.4631C66.1809 38.5875 66.353 38.6812 66.5384 38.7386C66.7238 38.7961 66.9187 38.8162 67.1119 38.7979H67.1713C67.1067 38.8171 67.0462 38.8483 66.9931 38.8897C66.9007 38.9539 66.8249 39.039 66.7717 39.1381C66.9229 37.9556 66.4639 36.6488 66.0427 35.4446C65.4388 33.8836 64.7167 32.3709 63.8828 30.9196C58.3102 21.1999 45.0699 6.57176 32.7907 8.87208C19.8743 11.4208 29.8423 30.412 34.7291 36.719C35.7497 38.0312 37.1159 39.7159 38.4389 40.4989C38.1888 40.453 37.9308 40.4773 37.6936 40.5691C37.4533 40.6557 37.2382 40.8004 37.0673 40.9903C37.0241 41.0335 37.0403 40.9903 37.0403 41.0281C37.01 41.0771 36.9916 41.1326 36.9863 41.19C36.9592 41.0332 36.9023 40.8829 36.8189 40.7473C33.7356 36.1034 25.2579 32.5233 19.9228 31.3192C13.524 29.926 6.92546 30.5092 6.70946 38.4794C6.70946 45.0833 10.9861 51.3687 15.0306 56.5472C17.2406 59.3252 19.6307 61.9552 22.1853 64.4201C22.4292 64.6555 22.573 64.9757 22.5869 65.3144C22.6007 65.6531 22.4836 65.9841 22.2597 66.2385C22.0358 66.493 21.7225 66.6514 21.3848 66.6808C21.0472 66.7102 20.7111 66.6084 20.4466 66.3965C14.6796 61.6338 9.57674 56.2394 5.86706 49.657C2.41657 43.7172 0.569852 34.9154 6.02908 29.4724C10.052 25.7843 15.9702 26.0057 20.8678 27.0263C27.4502 28.5599 33.7787 31.3462 38.7844 35.9414C40.0102 37.1726 41.3008 38.7169 41.533 40.7257C41.7435 42.2754 40.8796 44.2788 39.265 44.8457C37.6505 45.4127 36.3113 44.5865 35.2907 43.8846C30.7279 40.1425 27.785 35.0126 25.2039 29.845C21.964 22.998 18.9455 12.5656 25.8626 6.77154C32.7312 1.44731 42.4293 3.70443 49.0549 7.9433C55.5347 11.9986 60.8103 17.501 65.2544 23.6514C68.0731 27.7283 75.3736 38.8357 69.963 42.999C67.9759 44.3814 65.1302 43.9602 63.2727 42.6264C57.3329 38.2256 55.405 27.6365 55.2214 20.6869C55.1296 13.7535 56.6578 5.2974 63.4886 1.78751C71.8799 -2.15976 82.199 3.90964 88.0254 9.77925C104.916 27.1883 110.942 56.828 105.915 80.1012C104.582 86.4583 102.271 92.5698 99.0628 98.2176C98.3176 99.6648 96.9784 101.533 96.0928 102.905C96.0045 103.067 95.8831 103.208 95.7366 103.32C95.5901 103.432 95.4218 103.512 95.2424 103.555C95.063 103.598 94.8765 103.603 94.6952 103.569C94.5138 103.536 94.3416 103.464 94.1896 103.36C94.0376 103.255 93.9092 103.12 93.8128 102.963C93.7164 102.805 93.6542 102.63 93.63 102.447C93.6058 102.264 93.6202 102.078 93.6724 101.901C93.7246 101.724 93.8133 101.56 93.9329 101.42L93.8735 101.447Z" fill="black"/>
<path d="M92.9003 95.1601C98.7852 74.5009 85.3272 52.5606 62.8409 46.1552C40.3547 39.7499 17.3553 51.3049 11.4703 71.9642C5.58539 92.6234 19.0434 114.564 41.5297 120.969C64.0159 127.374 87.0154 115.819 92.9003 95.1601Z" fill="url(#paint0_linear_1_6214)"/>
<path d="M104.074 114.348C111.706 109.274 114.9 100.661 111.21 95.1107C107.52 89.5603 98.3413 89.1742 90.7099 94.2484C83.0784 99.3226 79.8836 107.936 83.574 113.486C87.2645 119.036 96.4427 119.422 104.074 114.348Z" fill="#967AFE"/>
<path d="M100.432 108.86C103.897 106.557 105.722 103.212 104.51 101.389C103.298 99.5664 99.5076 99.956 96.0432 102.259C92.5789 104.563 90.753 107.908 91.965 109.731C93.177 111.553 96.9679 111.164 100.432 108.86Z" fill="#967AFE"/>
<path d="M91.2975 110.26C89.9421 108.677 90.6333 106.28 91.5999 104.736C93.884 101.155 98.3929 98.4231 102.729 99.2331C103.755 99.3465 106.304 101.118 104.84 102.106C104.676 102.185 104.49 102.209 104.311 102.176C104.132 102.143 103.967 102.054 103.841 101.922C103.096 101.35 101.8 101.485 100.547 101.847C97.7989 102.635 92.264 106.21 92.6474 109.363C92.7389 109.541 92.7615 109.747 92.7108 109.941C92.6602 110.135 92.5399 110.304 92.373 110.414C92.206 110.525 92.004 110.571 91.8057 110.542C91.6073 110.514 91.4264 110.413 91.2975 110.26Z" fill="black"/>
<path d="M95.9893 90.3138C108.047 85.724 119.025 94.6013 113.269 107.221C108.792 116.832 94.7798 123.836 85.1897 117.561C83.8574 116.608 82.7513 115.373 81.9498 113.943C81.1934 112.524 80.7724 110.95 80.7188 109.343C80.7317 109.011 80.8654 108.695 81.0946 108.454C81.3238 108.213 81.6329 108.065 81.964 108.035C82.2951 108.006 82.6256 108.099 82.8933 108.296C83.1611 108.493 83.3479 108.781 83.4187 109.105C83.5946 110.26 84.0141 111.365 84.6497 112.345C86.1185 114.548 88.6187 115.698 91.216 115.985C97.1018 116.492 102.982 113.528 106.827 109.17C111.805 103.716 112.702 94.8335 104.203 92.7654C101.736 92.2473 99.1836 92.299 96.74 92.9166C96.4046 92.9879 96.0546 92.9305 95.7596 92.7557C95.4645 92.5809 95.2459 92.3016 95.1473 91.9731C95.0487 91.6447 95.0772 91.2911 95.2272 90.9827C95.3772 90.6744 95.6378 90.4336 95.9571 90.3084L95.9893 90.3138Z" fill="black"/>
<path d="M44.6165 62.2808C44.6165 62.2808 47.3164 72.4486 65.8486 71.4605C65.8486 71.4605 59.0502 81.3745 49.0119 75.9639C42.2243 72.2866 43.2395 63.7063 44.6165 62.2808Z" fill="black"/>
<path d="M88.9866 56.5641L96.0064 51.472C96.4995 51.1088 97.0956 50.9123 97.708 50.9111C98.3204 50.91 98.9173 51.1042 99.4118 51.4655C99.9062 51.8269 100.272 52.3365 100.457 52.9204C100.642 53.5042 100.636 54.1319 100.44 54.7119L97.7397 62.9521C97.5478 63.5334 97.546 64.1607 97.7343 64.7432C97.9227 65.3256 98.2915 65.8331 98.7874 66.192L105.807 71.284C106.299 71.6416 106.664 72.1456 106.852 72.7239C107.039 73.3021 107.039 73.9248 106.851 74.5027C106.662 75.0807 106.296 75.5842 105.804 75.9411C105.312 76.298 104.719 76.4899 104.112 76.4894H95.4718C94.8635 76.4896 94.2709 76.6825 93.779 77.0405C93.2871 77.3985 92.9214 77.9032 92.7342 78.482L90.0343 86.7221C89.8467 87.3005 89.4807 87.8046 88.9889 88.1621C88.497 88.5197 87.9046 88.7123 87.2966 88.7123C86.6885 88.7123 86.0961 88.5197 85.6042 88.1621C85.1124 87.8046 84.7464 87.3005 84.5588 86.7221L81.8589 78.482C81.6717 77.9032 81.306 77.3985 80.8141 77.0405C80.3223 76.6825 79.7295 76.4896 79.1211 76.4894H70.4814C69.8736 76.4899 69.2812 76.298 68.7892 75.9411C68.2972 75.5842 67.9309 75.0807 67.7426 74.5027C67.5544 73.9248 67.5539 73.3021 67.7413 72.7239C67.9287 72.1456 68.2944 71.6416 68.7859 71.284L75.8057 66.192C76.3016 65.8331 76.6704 65.3256 76.8588 64.7432C77.0471 64.1607 77.0452 63.5334 76.8532 62.9521L74.1533 54.7119C73.9585 54.1326 73.9531 53.5064 74.138 52.9238C74.3229 52.3413 74.6885 51.8327 75.1817 51.4718C75.675 51.1109 76.2704 50.9164 76.8816 50.9164C77.4928 50.9165 78.088 51.1111 78.5812 51.472L85.6009 56.5641C86.0922 56.9234 86.6851 57.1172 87.2938 57.1172C87.9025 57.1172 88.4954 56.9234 88.9866 56.5641Z" fill="#FBEB6F"/>
<path d="M38.5894 36.4054L45.6092 31.3134C46.1024 30.9524 46.6976 30.7578 47.3088 30.7577C47.9199 30.7577 48.5154 30.9522 49.0086 31.3131C49.5018 31.674 49.8674 32.1826 50.0523 32.7651C50.2372 33.3477 50.2318 33.974 50.037 34.5533L47.3371 42.7934C47.1452 43.3747 47.1432 44.002 47.3316 44.5845C47.5199 45.1669 47.8887 45.6744 48.3846 46.0333L55.4044 51.1253C55.8956 51.4827 56.2611 51.9862 56.4487 52.5639C56.6362 53.1416 56.6362 53.7638 56.4487 54.3415C56.2611 54.9191 55.8956 55.4227 55.4044 55.78C54.9133 56.1373 54.3217 56.3301 53.7143 56.3308H45.0476C44.4392 56.3309 43.8466 56.5238 43.3547 56.8818C42.8629 57.2398 42.497 57.7444 42.3098 58.3233L39.6099 66.5634C39.4223 67.1418 39.0563 67.6459 38.5645 68.0035C38.0727 68.361 37.4802 68.5536 36.8722 68.5536C36.2641 68.5536 35.6717 68.361 35.1798 68.0035C34.688 67.6459 34.3222 67.1418 34.1346 66.5634L31.4346 58.3233C31.2475 57.7444 30.8816 57.2398 30.3897 56.8818C29.8979 56.5238 29.3052 56.3309 28.6969 56.3308H20.0572C19.4493 56.3313 18.857 56.1393 18.365 55.7824C17.873 55.4255 17.5065 54.922 17.3182 54.344C17.13 53.7661 17.1296 53.1434 17.317 52.5652C17.5045 51.9869 17.87 51.4829 18.3615 51.1253L25.3813 46.0333C25.8772 45.6744 26.2461 45.1669 26.4344 44.5845C26.6227 44.002 26.6209 43.3747 26.429 42.7934L23.7291 34.5533C23.5327 33.9732 23.5265 33.3455 23.7114 32.7617C23.8963 32.1778 24.2625 31.6682 24.757 31.3069C25.2514 30.9455 25.8483 30.7513 26.4608 30.7524C27.0732 30.7536 27.6692 30.9501 28.1623 31.3134L35.1821 36.4054C35.6754 36.7698 36.2725 36.9664 36.8858 36.9664C37.499 36.9664 38.0961 36.7698 38.5894 36.4054Z" fill="#FBEB6F"/>
<defs>
<linearGradient id="paint0_linear_1_6214" x1="94.7588" y1="37.7633" x2="14.546" y2="124.063" gradientUnits="userSpaceOnUse">
<stop offset="0.469771" stop-color="#967AFE"/>
<stop offset="1" stop-color="#48D19C"/>
</linearGradient>
</defs>
</svg>
