<svg width="156" height="152" viewBox="0 0 156 152" fill="none" xmlns="http://www.w3.org/2000/svg">
<path d="M135.471 64.6758C123.882 19.24 62.4909 -7.95069 35.5359 7.60194C8.48163 23.1856 56.2748 53.0687 62.2738 41.9641C66.7528 33.676 16.2486 25.7104 5.19989 46.499C-5.84887 67.2875 42.0497 73.1748 41.3922 67.9451C40.3313 59.5267 1.59555 74.4714 8.5933 89.7572C15.5911 105.043 47.875 100.328 47.875 100.328L135.471 64.6758Z" fill="#967AFE"/>
<path d="M134.007 65.048C125.477 34.5321 93.3048 10.9953 62.7021 6.46658C55.0033 5.38714 46.7896 5.57945 39.6554 8.63166C25.6165 14.7361 28.7555 24.389 38.669 32.826C43.0674 36.4738 48.2909 39.5694 53.8184 40.9839C55.4872 41.3437 58.5518 41.9765 59.6747 40.5992C59.6747 40.5992 59.7491 40.5062 59.7119 40.5434C59.6783 40.6133 59.6593 40.6893 59.656 40.7668C59.6382 40.8951 59.6554 41.0258 59.7057 41.1452C58.7999 40.1154 57.3173 39.5198 55.9835 38.9739C54.1773 38.3122 52.3232 37.7896 50.4374 37.4105C37.8067 34.836 15.1447 35.1772 7.82431 47.5226C0.231009 60.5999 24.171 66.4066 33.3214 66.9649C35.2322 67.0828 37.7199 67.182 39.3948 66.6361C39.1613 66.8106 38.9843 67.0502 38.8861 67.3247C38.7813 67.5993 38.7451 67.8953 38.7807 68.187C38.7807 68.2552 38.7807 68.2243 38.7807 68.2367C38.805 68.2992 38.8384 68.3577 38.8799 68.4104C38.7236 68.3144 38.5513 68.2471 38.3712 68.2118C32.0125 67.3557 22.527 71.934 17.4214 75.6562C11.3728 80.0919 6.87514 86.2832 13.5751 92.4868C19.2763 97.4932 27.9491 98.5665 35.4803 99.0131C39.5544 99.2067 43.6366 99.1363 47.7015 98.8022C48.0852 98.7782 48.4636 98.901 48.76 99.1458C49.0563 99.3906 49.2485 99.7389 49.2974 100.12C49.3464 100.501 49.2484 100.887 49.0235 101.199C48.7986 101.51 48.4635 101.725 48.0862 101.799C43.8963 102.511 39.6558 102.884 35.4059 102.915C24.7852 102.915 11.0068 101.147 6.1183 90.1233C3.07229 82.8153 8.84173 75.619 14.4312 71.6114C20.6349 67.0579 31.7705 61.6855 39.5995 63.1496C44.9781 64.3903 45.8032 70.898 39.9159 71.9527C33.2284 73.0507 26.5718 71.6983 20.1572 70.0047C11.8071 67.5915 0.491562 62.2997 0.745912 51.9396C1.36628 41.9765 10.6718 35.3138 19.357 32.8199C27.7754 30.2888 36.5225 29.9227 45.1767 30.7726C50.8344 31.4302 65.959 33.5519 65.4441 41.3809C65.1339 44.1478 62.609 46.2818 60.0531 46.8712C51.7588 48.6516 41.1505 42.299 35.0088 37.181C28.8672 32.063 22.8186 24.2712 24.9775 15.7163C27.9367 5.48642 40.9954 1.18108 50.487 0.604136C78.3105 -0.766877 108.46 16.5103 124.733 38.5024C127.596 42.3486 130.088 46.4572 132.177 50.7733C132.797 51.8713 133.579 54.0303 134.113 55.1531C134.733 56.5303 135.198 58.2549 135.719 59.6631C136.11 60.8605 136.638 63.0814 136.991 64.2787C137.042 64.472 137.054 64.6733 137.026 64.8712C136.999 65.0691 136.932 65.2596 136.831 65.4317C136.729 65.6038 136.595 65.754 136.435 65.8739C136.275 65.9937 136.093 66.0806 135.899 66.1298C135.705 66.1789 135.504 66.1892 135.306 66.1601C135.109 66.131 134.919 66.0631 134.747 65.9602C134.576 65.8573 134.427 65.7215 134.308 65.5607C134.19 65.3999 134.104 65.2172 134.057 65.0231L134.007 65.048Z" fill="black"/>
<path d="M111.24 124.951C133.821 110.404 141.292 81.7926 127.927 61.046C114.562 40.2994 85.4215 35.2737 62.8402 49.8208C40.2589 64.3679 32.7877 92.9791 46.1529 113.726C59.518 134.472 88.6584 139.498 111.24 124.951Z" fill="url(#paint0_linear_1_6255)"/>
<path d="M152.971 66.136C154.381 55.7022 149.373 46.4123 141.785 45.3863C134.196 44.3602 126.901 51.9867 125.49 62.4205C124.08 72.8543 129.088 82.1443 136.676 83.1703C144.265 84.1963 151.56 76.5698 152.971 66.136Z" fill="#967AFE"/>
<path d="M145.474 65.1163C146.115 60.3798 144.614 56.2671 142.122 55.9301C139.629 55.5932 137.09 59.1596 136.45 63.8961C135.809 68.6325 137.31 72.7453 139.803 73.0823C142.295 73.4192 144.834 69.8527 145.474 65.1163Z" fill="#967AFE"/>
<path d="M139.689 73.9565C137.295 73.9565 135.744 71.5123 135.142 69.5023C133.79 64.8185 134.85 58.8568 138.864 55.7239C139.739 54.9298 143.207 54.0675 142.946 56.0899C142.889 56.2908 142.769 56.4681 142.603 56.5963C142.438 56.7245 142.237 56.797 142.028 56.8033C140.967 57.0143 140.105 58.2364 139.466 59.595C138.058 62.5604 136.941 70.0482 139.962 72.1079C140.191 72.1606 140.392 72.2968 140.526 72.4898C140.659 72.6827 140.716 72.9186 140.685 73.1513C140.654 73.384 140.537 73.5968 140.358 73.748C140.178 73.8992 139.949 73.978 139.714 73.969L139.689 73.9565Z" fill="black"/>
<path d="M126.005 54.7752C131.191 40.8913 147.178 38.1493 153.716 52.6783C157.885 62.66 155.255 75.8987 146.322 82.456C141.824 85.7935 135.223 86.1161 130.862 82.3877C130.525 82.1409 130.299 81.7703 130.235 81.3573C130.171 80.9443 130.274 80.5228 130.521 80.1855C130.768 79.8482 131.138 79.6227 131.551 79.5587C131.964 79.4948 132.386 79.5974 132.723 79.8442C136.96 82.6483 142.078 81.2029 145.323 77.6171C149.665 72.9148 151.359 65.9977 150.559 59.7133C149.628 51.2825 142.643 43.7761 134.429 49.5393C132.111 51.2756 130.221 53.5184 128.902 56.0965C128.714 56.4505 128.398 56.7192 128.018 56.8475C127.638 56.9759 127.224 56.9541 126.86 56.7867C126.496 56.6193 126.209 56.3191 126.06 55.9474C125.91 55.5756 125.908 55.1607 126.054 54.7876L126.005 54.7752Z" fill="black"/>
<path d="M58.7131 90.7247C66.2382 92.1143 74.1603 92.7594 81.5613 90.4455C88.9623 88.1315 95.5444 83.4353 100.718 77.759C100.872 77.5961 101.078 77.4935 101.3 77.4697C101.523 77.4459 101.746 77.5024 101.931 77.629C102.115 77.7557 102.248 77.9441 102.306 78.1602C102.363 78.3763 102.341 78.6058 102.244 78.8074C95.1412 92.0274 78.385 100.036 63.8436 95.0424C61.8269 94.396 59.8862 93.5328 58.0556 92.4679C57.8601 92.3569 57.7107 92.1798 57.6343 91.9684C57.5579 91.7571 57.5595 91.5254 57.6388 91.3151C57.7182 91.1048 57.87 90.9297 58.067 90.8215C58.2639 90.7132 58.4931 90.6789 58.7131 90.7247Z" fill="black"/>
<path d="M80.5558 79.3921C79.1414 75.8808 79.1848 71.6127 81.536 68.4426C83.7073 65.44 88.633 63.7526 91.4619 66.7676C93.7262 69.1808 94.2721 72.6052 93.9434 75.7381C93.9339 75.809 93.9011 75.8748 93.8502 75.9251C93.7993 75.9754 93.7331 76.0073 93.662 76.0158C93.591 76.0243 93.5191 76.009 93.4577 75.9722C93.3963 75.9354 93.3489 75.8792 93.323 75.8125C92.3428 73.7281 91.3936 71.6437 90.1777 70.1548C89.7245 69.5273 89.087 69.0568 88.3538 68.8086C87.6552 68.6874 86.9361 68.8055 86.3128 69.1436C82.5472 70.7503 81.6849 75.3473 81.1762 79.2804C81.1833 79.3592 81.1607 79.4378 81.1127 79.5008C81.0648 79.5637 80.995 79.6063 80.9171 79.6203C80.8393 79.6343 80.759 79.6187 80.6921 79.5764C80.6252 79.5342 80.5766 79.4684 80.5558 79.3921Z" fill="black"/>
<path d="M60.3131 85.918C58.8987 82.4067 58.9483 78.1385 61.2933 74.9685C63.4646 71.9659 68.3965 70.2785 71.2192 73.2935C73.4835 75.7067 74.0295 79.1311 73.7007 82.264C73.6912 82.3349 73.6584 82.4007 73.6075 82.451C73.5566 82.5012 73.4904 82.5332 73.4193 82.5417C73.3483 82.5502 73.2764 82.5349 73.2151 82.4981C73.1537 82.4613 73.1063 82.4051 73.0803 82.3384C72.1001 80.254 71.1509 78.1696 69.935 76.6807C69.4836 76.0514 68.8455 75.5804 68.1111 75.3344C67.4125 75.2138 66.6936 75.3318 66.0701 75.6695C62.3045 77.2762 61.4422 81.8731 60.9335 85.8063C60.9406 85.885 60.918 85.9636 60.87 86.0266C60.8221 86.0895 60.7523 86.1322 60.6744 86.1462C60.5966 86.1602 60.5163 86.1445 60.4494 86.1023C60.3825 86.06 60.3339 85.9943 60.3131 85.918Z" fill="black"/>
<path d="M101.462 80.1348C101.462 80.1348 117.369 91.1649 106.798 95.8053C102.871 97.5299 95.5875 94.2482 90.1655 91.3945C90.1655 91.3945 98.7452 85.4637 101.462 80.1348Z" fill="#FF6AAB"/>
<defs>
<linearGradient id="paint0_linear_1_6255" x1="79.7997" y1="15.9155" x2="93.4414" y2="150.578" gradientUnits="userSpaceOnUse">
<stop offset="0.543508" stop-color="#967AFE"/>
<stop offset="1" stop-color="#FFAF54"/>
</linearGradient>
</defs>
</svg>
