<svg width="167" height="133" viewBox="0 0 167 133" fill="none" xmlns="http://www.w3.org/2000/svg">
<path d="M160.617 80.3831C163.826 70.2236 160.436 60.0961 153.047 57.7627C145.658 55.4294 137.068 61.7738 133.859 71.9332C130.651 82.0927 134.04 92.2202 141.429 94.5536C148.818 96.8869 157.409 90.5426 160.617 80.3831Z" fill="#967AFE"/>
<path d="M142.102 65.6747C125.435 12.6061 57.0926 -8.67935 31.3963 9.71383C5.60556 28.17 56.9036 53.6016 61.8563 41.7743C65.5551 32.9526 13.7089 29.947 4.59109 52.0642C-4.52673 74.1814 44.5091 75.3785 43.3182 70.1296C41.4279 61.7238 3.74673 80.7031 12.3478 95.4542C20.949 110.205 53.1166 102.241 53.1166 102.241L142.102 65.6747Z" fill="#967AFE"/>
<path d="M136.671 57.9937C125.001 27.9937 90.1363 7.4203 58.7438 5.89541C50.861 5.58035 42.5749 6.59485 35.6688 10.3882C22.0898 17.9496 26.217 27.4014 37.0866 34.9628C41.9007 38.2205 47.4835 40.8229 53.2176 41.705C54.9378 41.9004 58.101 42.2281 59.0966 40.7221C59.0966 40.7221 59.1596 40.6213 59.0966 40.6654C59.0829 40.7404 59.0829 40.8172 59.0966 40.8922C59.0899 41.0261 59.1205 41.1591 59.1849 41.2766C58.1641 40.3251 56.6076 39.8714 55.1836 39.4556C53.291 38.9652 51.3635 38.6218 49.418 38.4285C36.3998 37.0863 13.5012 39.6887 7.35757 52.9212C0.987072 66.8972 25.7696 70.3755 35.0828 70.0289C37.0236 69.9596 39.5504 69.8147 41.1887 69.0901C40.971 69.2922 40.8158 69.5524 40.7413 69.8399C40.669 70.1295 40.669 70.4324 40.7413 70.7221C40.7413 70.7851 40.7413 70.722 40.7413 70.7724C40.7721 70.8332 40.8125 70.8885 40.861 70.9363C40.6932 70.8536 40.5117 70.8023 40.3254 70.785C33.81 70.5582 24.6795 76.1411 19.8906 80.3944C14.2195 85.4794 10.2813 92.1902 17.6852 97.7919C23.9423 102.278 32.8081 102.505 40.4766 102.203C44.6138 101.998 48.733 101.522 52.8081 100.779C53.2041 100.688 53.6201 100.758 53.9646 100.973C54.3091 101.189 54.5538 101.533 54.6448 101.929C54.7359 102.325 54.6659 102.741 54.4503 103.085C54.2346 103.43 53.8909 103.674 53.4949 103.765C49.3318 104.904 45.0836 105.705 40.7917 106.16C30.0797 107.212 15.9524 106.79 9.91586 96.16C6.13514 89.0711 11.2139 81.2198 16.4691 76.6263C22.2725 71.4026 33.0034 64.8746 41.0437 65.5551C46.6077 66.2545 48.0696 72.7762 42.2473 74.4272C35.5932 76.2041 28.7312 75.5047 22.0835 74.4272C13.4004 72.8204 1.44075 68.5985 0.659406 58.1007C0.287636 47.9684 9.02738 40.3062 17.5529 36.9162C25.8138 33.5198 34.6165 32.2722 43.4508 32.2659C49.2353 32.373 64.7299 33.0032 64.9945 40.9679C64.9567 43.7971 62.619 46.2104 60.0922 47.0611C51.9007 49.6824 40.5585 44.3201 33.8163 39.7643C27.074 35.2085 20.1994 27.9307 21.5289 19.0649C23.4949 8.43481 36.2674 2.77632 45.8011 1.24513C73.791 -2.91996 105.99 11.535 124.642 32.121C127.909 35.7254 130.829 39.6306 133.362 43.7845C134.106 44.8242 135.108 46.935 135.751 48.0188C136.488 49.3484 137.162 51.0434 137.824 52.4297C138.34 53.6017 139.084 55.7883 139.575 56.9603C139.645 57.1502 139.676 57.3518 139.667 57.5537C139.658 57.7556 139.609 57.9538 139.524 58.1369C139.438 58.32 139.318 58.4846 139.169 58.6211C139.02 58.7576 138.845 58.8635 138.655 58.9326C138.466 59.0016 138.264 59.0326 138.062 59.0238C137.86 59.0149 137.662 58.9664 137.479 58.881C137.296 58.7956 137.131 58.6749 136.995 58.5259C136.858 58.3769 136.752 58.2024 136.683 58.0125L136.671 57.9937Z" fill="black"/>
<path d="M133.841 51.5475C149.418 71.1883 140.962 103.936 119.588 120.892C98.2144 137.849 68.2523 135.681 52.6757 116.046C37.0992 96.412 41.7936 66.7397 63.1672 49.7832C84.5409 32.8267 118.259 31.913 133.841 51.5475Z" fill="url(#paint0_linear_1_6308)"/>
<path d="M153.184 77.9336C154.637 73.3015 153.839 68.9266 151.402 68.1619C148.965 67.3972 145.811 70.5323 144.358 75.1643C142.904 79.7963 143.702 84.1712 146.139 84.9359C148.576 85.7006 151.73 82.5656 153.184 77.9336Z" fill="#967AFE"/>
<path d="M145.858 85.8764C143.47 85.4354 142.329 82.7258 142.077 80.6401C141.523 75.7126 143.609 69.9281 148.139 67.4832C149.147 66.8531 152.758 66.5633 152.166 68.5419C152.072 68.7322 151.922 68.8886 151.736 68.9892C151.549 69.0897 151.336 69.1294 151.126 69.1026C150.023 69.1026 148.946 70.2054 148.076 71.453C146.186 74.1814 143.76 81.4908 146.425 84.0554C146.637 84.1513 146.807 84.3215 146.902 84.5338C146.996 84.7462 147.01 84.986 146.941 85.2079C146.871 85.4298 146.722 85.6184 146.523 85.7381C146.323 85.8578 146.087 85.9003 145.858 85.8575V85.8764Z" fill="black"/>
<path d="M135.48 64.3327C143.042 51.3208 159.525 51.3208 163.577 66.9855C166.053 77.6975 161.126 90.5205 151.076 95.511C145.997 98.0882 139.33 97.2754 135.6 92.7952C135.323 92.49 135.176 92.0895 135.188 91.6778C135.2 91.266 135.371 90.875 135.665 90.5866C135.959 90.2982 136.353 90.1348 136.765 90.1307C137.177 90.1266 137.575 90.2821 137.874 90.5646C141.655 94.0996 147.005 93.5262 150.868 90.4953C156.047 86.5318 158.902 79.8967 159.179 73.4821C159.696 64.881 153.993 56.1664 144.762 60.5268C142.142 61.8651 139.864 63.7857 138.101 66.1412C137.849 66.4513 137.489 66.6551 137.093 66.7122C136.697 66.7693 136.294 66.6756 135.964 66.4495C135.634 66.2235 135.401 65.8817 135.312 65.4919C135.222 65.1021 135.282 64.6929 135.48 64.3454V64.3327Z" fill="black"/>
<path d="M97.5524 98.8001C92.0262 95.5549 85.4793 91.9381 79.2348 94.9563C77.2196 96.0249 75.3391 97.3301 73.6331 98.8442C73.4257 99.0034 73.1726 99.0916 72.9112 99.0957C72.6497 99.0997 72.394 99.0194 72.1818 98.8666C71.9696 98.7138 71.8123 98.4967 71.7333 98.2475C71.6542 97.9984 71.6575 97.7303 71.7427 97.4831C73.6835 92.1019 79.4995 87.9305 85.4415 88.6615C88.2977 88.9747 91.0297 89.9995 93.3873 91.6419C95.6385 93.1513 97.5576 95.1047 99.0269 97.3823C99.1459 97.5837 99.1931 97.8196 99.1606 98.0513C99.1282 98.283 99.0181 98.4969 98.8483 98.6579C98.6785 98.8189 98.4591 98.9176 98.226 98.9377C97.9929 98.9578 97.7598 98.8982 97.565 98.7686L97.5524 98.8001Z" fill="black"/>
<path d="M111.119 83.0536C103.828 86.4626 94.1057 85.927 88.1889 80.0606C86.2007 78.099 84.7661 75.6471 84.0301 72.9529C83.9297 72.5816 83.9652 72.1866 84.1302 71.8392C84.2953 71.4919 84.579 71.2149 84.9303 71.0583C85.2816 70.9017 85.6772 70.8757 86.046 70.9851C86.4147 71.0944 86.7322 71.332 86.9413 71.6548C88.9324 74.4903 91.0307 76.784 93.9797 78.3782C96.9437 79.9212 100.188 80.8513 103.52 81.1129C105.913 81.3475 108.318 81.4359 110.722 81.3776C110.92 81.3807 111.111 81.4495 111.265 81.5733C111.419 81.6971 111.527 81.8688 111.573 82.0611C111.618 82.2535 111.598 82.4555 111.516 82.6353C111.434 82.815 111.294 82.9622 111.119 83.0536Z" fill="black"/>
<path d="M53.7216 89.2915C60.1551 87.3318 66.9163 84.6916 70.6781 78.8945C71.8543 77.0158 72.762 74.9818 73.375 72.8517C73.4858 72.4921 73.7188 72.1825 74.0337 71.9765C74.3485 71.7705 74.7255 71.6811 75.0994 71.7238C75.4732 71.7664 75.8204 71.9384 76.0809 72.21C76.3413 72.4815 76.4986 72.8355 76.5256 73.2108C76.6431 75.9981 76.0237 78.767 74.7298 81.2385C72.2093 86.2102 66.9289 89.4931 61.6485 90.6399C59.0729 91.248 56.4078 91.3804 53.7846 91.0306C53.6694 91.0144 53.5586 90.9756 53.4585 90.9164C53.3584 90.8572 53.271 90.7787 53.2013 90.6856C53.1316 90.5925 53.081 90.4865 53.0524 90.3738C53.0239 90.2611 53.0179 90.1438 53.0348 90.0287C53.062 89.8511 53.142 89.6857 53.2645 89.5542C53.387 89.4227 53.5463 89.3312 53.7216 89.2915Z" fill="black"/>
<defs>
<linearGradient id="paint0_linear_1_6308" x1="82.0878" y1="23.8439" x2="79.471" y2="154.957" gradientUnits="userSpaceOnUse">
<stop offset="0.458733" stop-color="#967AFE"/>
<stop offset="1" stop-color="#FFAF54"/>
</linearGradient>
</defs>
</svg>
