<svg width="152" height="123" viewBox="0 0 152 123" fill="none" xmlns="http://www.w3.org/2000/svg">
<path d="M74.9361 101.82C74.3975 102.641 73.9413 103.439 73.3937 104.165C70.8733 107.481 67.4904 109.396 63.4006 109.949C61.2478 110.242 59.0538 110.249 56.8765 110.357C53.5442 110.524 50.2102 110.677 46.8744 110.817C42.8669 110.986 38.8787 110.877 34.9406 109.998C30.2647 108.956 26.2854 106.739 23.1815 103.047C17.3806 96.1563 11.5856 89.2582 5.7967 82.3528C2.81484 78.7964 1.23523 74.6604 0.848354 70.0642C0.719826 68.5321 0.682549 66.9872 0.683834 65.4487C0.683834 58.4285 0.676122 51.4083 0.748098 44.388C0.827786 36.6421 0.956314 28.8956 1.13368 21.1488C1.20309 17.9356 1.75707 14.8072 3.3701 11.9603C5.79158 7.68671 9.4662 5.20354 14.322 4.59303C18.2373 4.08687 22.2135 4.3466 26.0297 5.35777C28.9601 6.13665 31.3687 7.74454 33.3237 10.1018C38.1036 15.8676 42.944 21.5845 47.76 27.3246C47.9078 27.5007 48.0646 27.669 48.2407 27.8683C48.9926 26.4544 49.6751 25.0805 50.436 23.7554C54.9216 15.9267 60.9316 9.59279 68.8156 5.10457C73.2601 2.57127 78.0028 0.972376 83.1234 0.606069C88.0152 0.252616 92.8684 0.629204 97.6715 1.5906C105.168 3.05686 112.238 6.19256 118.357 10.765C121.57 13.1607 124.254 16.0899 126.806 19.1592C132.048 25.4571 137.33 31.728 142.593 38.0105C146.388 42.5385 149.097 47.6231 150.467 53.3927C151.381 57.2486 151.485 61.1366 151.12 65.0619C150.463 72.1178 148.662 79.0199 145.789 85.4979C144.327 88.8127 142.569 91.9655 140.405 94.8805C140.083 95.3136 139.996 95.6709 140.217 96.2082C141.323 98.8596 141.902 101.701 141.92 104.574C141.933 108.832 140.268 112.381 137.193 115.283C135.76 116.64 134.126 117.765 132.347 118.618C130.327 119.588 128.338 120.675 126.228 121.4C120.85 123.24 116.146 121.963 112.292 117.813C110.459 115.838 108.783 113.719 107.059 111.643C106.928 111.469 106.757 111.328 106.56 111.233C106.363 111.138 106.147 111.091 105.928 111.097C98.9478 110.882 92.0805 109.972 85.4921 107.534C81.8933 106.2 78.4822 104.473 75.4001 102.147C75.2587 102.046 75.1199 101.951 74.9361 101.82Z" fill="black"/>
<path d="M50.9462 49.5239C50.9457 43.4967 52.2157 37.5371 54.6735 32.0337C57.7312 25.115 62.0819 19.1809 68.088 14.5538C72.3668 11.2532 77.0979 8.85746 82.5385 8.21482C84.5037 7.98219 86.5113 8.00146 88.4958 8.05802C92.4769 8.16089 96.4262 8.79721 100.238 9.94996C106.896 11.9756 112.858 15.2196 117.757 20.2322C121.507 24.0727 124.123 28.5866 125.452 33.8049C126.164 36.6042 126.295 39.4601 126.094 42.3379C125.731 47.3975 124.683 52.3844 122.979 57.1623C120.975 62.8112 118.332 68.1053 114.126 72.4868C113.812 72.8145 113.795 73.0845 113.946 73.4983C114.773 75.7669 115.665 78.0174 116.336 80.3335C116.893 82.2524 117.063 84.2536 116.272 86.1918C115.813 87.3304 115.058 88.3263 114.087 89.0773C111.523 91.0579 108.626 92.4383 105.568 93.4357C103.756 94.0256 102.079 93.5154 100.664 92.1838C99.1701 90.7777 98.129 89.0708 97.2858 87.2329C96.6612 85.8731 96.0841 84.4927 95.5237 83.1045C95.3309 82.629 95.1175 82.4452 94.552 82.4696C87.9688 82.7485 81.4203 82.4992 74.9939 80.8643C70.1612 79.6343 65.6113 77.7565 61.6744 74.6294C58.1851 71.8621 55.4453 68.2642 53.7057 64.1646C51.6865 59.4849 50.9654 54.5738 50.9462 49.5239ZM101.661 56.6367C101.94 56.0313 102.191 55.5827 102.359 55.1046C103.345 52.3104 104.008 49.4391 104.185 46.4791C104.286 44.8159 104.442 43.1232 104.246 41.4819C103.815 37.779 102.121 34.648 99.3616 32.1378C97.4003 30.3564 95.1381 29.2537 92.4031 29.3449C90.4751 29.4092 88.5652 29.6135 86.7041 30.1572C82.2596 31.4554 78.5528 33.855 75.7098 37.536C73.1058 40.9086 71.8076 44.7336 71.5647 48.9866C71.3912 52.0315 72.3847 54.5828 74.3435 56.8603C76.4321 59.2882 79.0464 60.9437 81.9395 62.2007C83.1837 62.7418 84.4754 63.1736 85.7453 63.6543C85.728 63.4052 85.6465 63.1647 85.5088 62.9564C83.2351 59.0826 80.9884 55.1933 78.6723 51.3439C77.7367 49.7874 77.9012 48.3209 78.9101 46.9739C81.3599 43.7067 84.6644 41.7106 88.659 40.9395C90.3762 40.6079 91.808 41.1091 92.8067 42.7582C94.624 45.758 96.5648 48.682 98.4619 51.6356C99.4889 53.2576 100.53 54.8733 101.661 56.6341V56.6367Z" fill="white"/>
<path d="M27.4635 63.8581C30.3052 63.5034 33.0943 63.0869 35.8962 62.8299C38.4925 62.5857 41.1029 62.4443 43.7095 62.3685C47.5833 62.2618 49.8467 63.9198 50.8659 67.6381C51.5973 70.309 51.7374 73.0363 51.0716 75.7586C50.2799 79.0001 48.1669 80.8997 44.9498 81.4678C43.1941 81.775 41.3767 81.7622 39.585 81.8406C35.3967 82.0248 31.2071 82.1897 27.0162 82.3354C23.9315 82.4395 20.8584 82.2249 17.8688 81.3637C12.8074 79.9062 9.74066 76.549 8.67773 71.4349C8.33535 69.7156 8.17127 67.9657 8.18806 66.2128C8.21891 54.9991 8.29001 43.7854 8.4014 32.5717C8.43611 28.7416 8.52994 24.9114 8.66747 21.0838C8.74073 18.9541 9.0929 16.8797 10.3049 15.034C11.4977 13.2179 13.2354 12.2822 15.3047 12.0238C17.9877 11.7043 20.7053 11.8346 23.3454 12.4094C26.5059 13.0752 28.268 14.9479 28.6961 18.1585C28.9026 19.7063 28.983 21.2684 28.9364 22.8292C28.7411 29.203 28.4711 35.5741 28.2359 41.9453C28.0868 45.9657 27.9557 49.986 27.8092 54.0064C27.7 57.0423 27.5779 60.0781 27.4648 63.1139C27.4545 63.3916 27.4635 63.6628 27.4635 63.8581Z" fill="white"/>
</svg>
